<?xml version="1.0" standalone="no"?>
<!DOCTYPE svg PUBLIC "-//W3C//DTD SVG 20010904//EN"
 "http://www.w3.org/TR/2001/REC-SVG-20010904/DTD/svg10.dtd">
<svg version="1.0" xmlns="http://www.w3.org/2000/svg"
 width="1256.000000pt" height="1256.000000pt" viewBox="0 0 1256.000000 1256.000000"
 preserveAspectRatio="xMidYMid meet">
<metadata>
Created by potrace 1.14, written by Peter Selinger 2001-2017
</metadata>
<g transform="translate(0.000000,1256.000000) scale(0.100000,-0.100000)"
fill="#000000" stroke="none">
<path d="M1009 9076 c-2 -2 -29 -7 -59 -10 -145 -15 -338 -93 -480 -194 -61
-43 -175 -151 -230 -217 -106 -127 -198 -339 -228 -525 -9 -56 -9 -3640 0
-3695 13 -82 21 -112 50 -199 31 -91 83 -197 124 -253 13 -17 24 -34 24 -37 0
-7 36 -50 105 -124 106 -114 293 -233 448 -283 185 -60 98 -58 2042 -58 1543
0 1791 2 1860 15 93 17 166 37 218 59 20 8 40 16 44 16 13 1 108 54 111 62 2
4 10 7 17 7 21 0 185 132 244 196 137 150 248 361 275 525 3 19 8 45 11 59 11
46 22 367 15 405 -1 6 -1 15 0 20 4 22 0 187 -5 195 -3 5 -1 11 4 14 5 3 6 21
1 40 -4 19 -5 37 -2 40 2 3 4 52 3 108 -1 57 -2 110 -1 118 0 8 0 44 -1 80 0
36 0 71 0 78 0 6 0 32 0 57 0 55 0 59 2 115 0 25 0 50 -1 55 -1 6 -2 13 -1 17
0 4 1 45 1 90 -1 113 -1 107 1 160 1 27 0 50 -3 53 -2 3 -2 26 2 52 3 27 3 65
-1 86 -3 21 -3 40 1 42 5 3 4 20 0 39 -4 19 -5 37 -2 40 6 7 5 133 -2 144 -3
5 -1 25 4 45 4 22 4 39 -1 43 -5 3 -6 10 -3 16 8 13 7 375 -1 388 -3 5 -1 11
4 14 5 3 6 21 1 40 -4 19 -5 37 -2 40 2 3 4 52 3 108 -1 57 -2 110 -1 118 2
87 0 142 -5 150 -3 6 -2 10 3 10 5 0 6 17 2 40 -4 22 -4 43 0 45 4 3 4 20 0
39 -4 19 -5 37 -2 40 6 7 5 133 -2 144 -3 5 -1 25 4 45 4 20 4 39 0 42 -4 3
-5 20 -1 37 4 18 6 42 5 53 -1 11 -5 60 -8 109 -26 334 -169 602 -437 819 -25
20 -51 37 -58 37 -6 0 -11 5 -11 10 0 6 -6 10 -14 10 -8 0 -16 3 -18 8 -3 6
-99 56 -163 83 -34 15 -138 46 -180 55 -22 4 -47 10 -55 13 -17 6 -3644 13
-3651 7z m184 -319 c21 -3 40 -1 42 3 3 4 22 4 44 0 21 -4 47 -3 56 3 13 7 16
6 10 -3 -6 -9 -3 -9 12 -1 11 6 22 9 24 6 8 -7 90 -12 94 -5 3 4 22 4 44 0 21
-4 47 -3 56 3 13 7 16 6 10 -3 -6 -9 -3 -9 12 -1 11 6 22 9 24 6 8 -7 90 -12
94 -5 3 4 22 4 44 0 21 -4 47 -3 56 3 13 7 16 6 10 -3 -6 -9 -3 -9 12 -1 11 6
22 9 24 6 8 -7 90 -12 94 -5 3 4 22 4 44 0 21 -4 47 -3 56 3 13 7 16 6 10 -3
-6 -9 -3 -9 12 -1 11 6 22 9 24 6 8 -7 90 -12 94 -5 3 4 22 4 44 0 21 -4 47
-3 56 3 13 7 16 6 10 -3 -6 -9 -3 -9 12 -1 11 6 22 9 24 6 9 -8 90 -11 95 -3
3 4 10 6 15 3 12 -8 137 -10 144 -3 3 3 23 2 44 -2 22 -4 47 -3 56 3 13 7 16
6 10 -3 -6 -9 -3 -9 12 -1 11 6 22 9 24 6 8 -7 90 -12 94 -5 3 4 22 4 44 0 21
-4 47 -3 56 3 13 7 16 6 10 -3 -6 -9 -3 -9 12 -1 11 6 22 9 24 6 8 -7 90 -12
94 -5 3 4 22 4 44 0 21 -4 47 -3 56 3 13 7 16 6 10 -3 -6 -9 -3 -9 12 -1 11 6
22 9 24 6 8 -7 90 -12 94 -5 3 4 22 4 44 0 21 -4 47 -3 56 3 13 7 16 6 10 -3
-6 -9 -3 -9 12 -1 11 6 22 9 24 6 8 -7 90 -12 94 -5 3 4 22 4 44 0 21 -4 47
-3 56 3 13 7 16 6 10 -3 -6 -9 -3 -9 12 -1 11 6 22 9 24 6 8 -7 90 -12 94 -5
3 4 22 4 44 0 21 -4 47 -3 56 3 13 7 16 6 10 -3 -6 -9 -3 -9 12 -1 11 6 22 9
24 6 8 -7 90 -12 94 -5 3 4 22 4 44 0 21 -4 47 -3 56 3 13 7 16 6 10 -3 -6 -9
-3 -9 12 -1 11 6 22 9 24 6 9 -8 90 -11 95 -3 3 4 9 6 14 3 5 -3 71 -6 147 -7
188 -2 262 -18 398 -84 105 -52 113 -58 209 -151 87 -84 143 -172 196 -308 26
-65 44 -225 39 -345 0 -8 0 -24 1 -35 0 -11 0 -46 -1 -78 -1 -32 1 -60 4 -63
3 -4 2 -17 -3 -30 -6 -14 -6 -26 0 -29 5 -3 6 -15 0 -29 -4 -12 -5 -29 0 -36
5 -7 5 -23 1 -34 -4 -12 -5 -32 -1 -46 3 -14 3 -42 0 -62 -4 -20 -4 -42 1 -49
4 -7 4 -20 -1 -29 -5 -9 -5 -22 0 -30 4 -7 5 -23 0 -35 -5 -12 -5 -28 0 -35 5
-7 4 -23 0 -36 -5 -12 -6 -24 -3 -27 4 -5 5 -45 2 -117 0 -8 0 -24 1 -35 0
-11 0 -50 -1 -87 0 -37 2 -72 5 -77 4 -5 2 -12 -3 -16 -7 -3 -7 -15 -1 -30 6
-15 6 -27 0 -30 -5 -3 -6 -15 0 -29 4 -12 4 -29 0 -36 -5 -8 -6 -18 -3 -24 3
-5 5 -32 4 -60 -2 -72 -2 -69 -1 -91 0 -11 0 -46 -1 -78 -1 -32 1 -60 4 -63 3
-4 2 -17 -3 -30 -6 -14 -6 -26 0 -29 5 -3 6 -15 0 -29 -4 -12 -5 -29 0 -36 5
-7 4 -23 0 -36 -5 -12 -6 -24 -3 -27 4 -5 5 -45 2 -117 0 -8 0 -24 1 -35 0
-11 0 -50 -1 -87 0 -37 2 -72 5 -77 4 -5 2 -12 -3 -16 -7 -3 -7 -15 -1 -30 6
-15 6 -27 0 -30 -5 -3 -6 -15 0 -29 4 -12 4 -29 0 -36 -5 -8 -6 -18 -3 -24 3
-5 5 -32 4 -60 -2 -72 -2 -69 -1 -91 0 -11 0 -46 -1 -78 -1 -32 1 -60 4 -63 3
-4 2 -17 -3 -30 -6 -14 -6 -26 0 -29 5 -3 6 -15 0 -29 -4 -12 -5 -29 0 -36 5
-7 4 -23 0 -36 -5 -12 -6 -24 -3 -27 4 -5 5 -45 2 -117 0 -8 0 -24 1 -35 0
-11 0 -50 -1 -87 0 -37 2 -72 5 -77 4 -5 2 -12 -3 -16 -7 -3 -7 -15 -1 -30 6
-15 6 -27 0 -30 -5 -3 -6 -15 0 -29 4 -12 4 -29 0 -36 -5 -8 -6 -18 -3 -24 3
-5 5 -32 4 -60 -2 -51 -2 -65 0 -88 2 -28 -11 -190 -15 -197 -3 -4 -7 -18 -10
-32 -31 -158 -158 -349 -303 -454 -46 -33 -133 -85 -133 -78 0 3 -6 1 -12 -4
-48 -36 -225 -73 -341 -70 -48 1 -87 -2 -87 -6 0 -5 -5 -5 -10 -2 -6 4 -41 6
-78 5 -37 -1 -76 -1 -87 -1 -101 5 -145 5 -145 0 0 -4 -17 -4 -37 0 -21 3 -58
4 -83 1 -25 -3 -55 -2 -67 2 -12 4 -25 3 -28 -2 -3 -5 -11 -7 -18 -4 -17 6
-247 10 -247 4 0 -3 -26 -3 -58 0 -33 3 -70 3 -83 -1 -13 -3 -34 -2 -46 2 -13
5 -25 4 -28 -2 -4 -5 -10 -7 -15 -4 -12 7 -175 9 -186 3 -5 -3 -18 -2 -28 1
-11 4 -39 4 -63 1 -23 -4 -43 -4 -43 -1 0 3 -24 5 -52 4 -73 -4 -136 -4 -256
-1 -56 2 -102 1 -102 -2 0 -3 -26 -3 -58 0 -33 3 -70 3 -83 -1 -13 -3 -34 -2
-46 2 -13 5 -25 4 -28 -2 -4 -5 -10 -7 -15 -4 -12 7 -175 9 -186 3 -5 -3 -18
-2 -28 1 -11 4 -39 4 -63 1 -23 -4 -43 -4 -43 -1 0 3 -24 5 -52 4 -73 -4 -136
-4 -256 -1 -56 2 -102 1 -102 -2 0 -3 -26 -3 -58 0 -33 3 -70 3 -83 -1 -13 -3
-34 -2 -46 2 -12 5 -25 4 -28 -1 -3 -5 -11 -7 -18 -4 -20 7 -247 9 -247 2 0
-4 -6 -5 -12 -3 -7 2 -49 7 -93 9 -69 5 -103 9 -150 20 -53 13 -127 41 -183
71 -65 36 -195 135 -210 160 -4 7 -20 29 -37 47 -16 19 -36 43 -43 54 -18 28
-78 149 -87 176 -4 13 -8 25 -9 28 -3 6 -15 57 -22 90 -2 14 -7 58 -9 97 -2
40 -6 76 -9 81 -2 4 -1 14 3 21 5 7 5 30 1 52 -4 21 -4 39 1 39 4 0 4 14 -1
30 -5 17 -5 30 0 30 5 0 5 12 1 28 -7 29 -6 90 3 99 2 3 1 16 -4 29 -5 13 -5
26 -1 29 5 3 5 21 1 40 -5 21 -4 35 2 35 5 0 6 4 3 10 -6 10 -7 83 -2 130 2
14 0 37 -4 53 -4 15 -4 27 1 27 5 0 5 13 0 30 -5 17 -5 30 0 30 5 0 5 13 0 30
-5 17 -5 30 0 30 5 0 5 13 0 30 -5 17 -5 30 0 30 5 0 5 13 0 30 -5 17 -5 30 0
30 5 0 5 13 0 30 -5 17 -5 30 0 30 5 0 5 13 0 30 -5 17 -5 30 0 30 5 0 5 13 0
30 -5 17 -5 30 0 30 5 0 5 13 0 30 -5 17 -5 30 0 30 5 0 5 12 1 28 -7 29 -6
90 3 99 2 3 1 16 -4 29 -5 13 -5 26 -1 29 5 3 5 21 1 40 -5 21 -4 35 2 35 5 0
6 4 3 10 -6 10 -7 74 -2 143 1 21 -1 43 -5 50 -3 6 -3 18 2 27 5 9 5 22 0 30
-5 8 -5 21 0 30 5 9 5 22 0 30 -4 7 -4 24 0 36 6 14 5 26 0 29 -5 3 -5 18 0
35 5 17 5 30 0 30 -5 0 -5 13 0 30 5 17 5 30 0 30 -5 0 -5 13 0 30 5 17 6 30
2 30 -4 0 -7 16 -7 35 0 19 3 35 7 35 4 0 3 14 -2 30 -5 17 -5 30 0 30 5 0 5
12 1 28 -7 29 -6 90 3 99 2 3 1 16 -4 29 -5 13 -5 26 -1 29 5 3 5 21 1 40 -5
21 -4 35 2 35 5 0 6 4 3 10 -6 10 -7 83 -2 130 2 14 0 37 -4 53 -4 15 -4 27 1
27 5 0 5 13 0 30 -5 17 -5 30 0 30 5 0 5 13 0 30 -5 17 -5 30 0 30 5 0 5 13 0
30 -5 17 -5 30 0 30 5 0 5 13 0 30 -5 17 -5 30 0 30 5 0 5 13 0 30 -5 17 -5
30 0 30 5 0 5 13 0 30 -5 17 -5 30 0 30 5 0 5 13 0 30 -5 17 -5 30 0 30 5 0 5
13 0 30 -5 17 -5 30 0 30 5 0 5 12 1 28 -7 29 -6 90 3 99 2 3 1 16 -4 29 -5
13 -6 26 0 29 5 3 5 18 0 34 -4 16 -6 32 -3 34 2 3 6 40 8 84 4 79 10 116 19
131 3 5 8 23 11 40 7 44 59 155 103 221 47 70 145 168 217 216 61 40 174 94
215 102 39 8 55 11 55 13 0 4 47 11 109 15 37 2 70 6 73 9 3 2 10 3 16 1 7 -3
29 -6 50 -8z"/>
<path d="M1946 7403 c-1 -1 -17 -5 -36 -8 -19 -3 -48 -9 -65 -12 -16 -4 -34
-8 -40 -9 -5 0 -19 -4 -30 -8 -11 -4 -51 -19 -90 -33 -81 -30 -285 -133 -285
-145 0 -4 -7 -8 -15 -8 -8 0 -15 -6 -15 -12 1 -7 38 -86 83 -174 75 -147 81
-165 75 -200 -4 -22 -10 -57 -13 -79 -3 -22 -10 -62 -15 -90 -12 -63 -19 -101
-26 -145 -3 -19 -7 -44 -9 -55 -1 -11 -6 -38 -10 -60 -3 -22 -10 -60 -15 -85
-5 -25 -12 -67 -15 -93 -2 -27 -7 -52 -9 -55 -2 -4 -7 -31 -10 -61 -4 -29 -8
-56 -10 -60 -2 -3 -6 -33 -10 -66 -3 -33 -8 -71 -11 -85 -3 -14 -8 -45 -11
-70 -3 -25 -7 -56 -9 -70 -19 -138 -25 -279 -13 -360 13 -97 14 -101 36 -158
55 -141 167 -206 352 -203 96 2 151 14 238 53 26 12 50 22 54 22 3 1 27 16 52
33 l46 33 -18 37 c-62 123 -90 326 -71 516 10 100 20 187 24 206 1 9 6 36 10
61 4 25 9 54 11 65 3 11 7 36 10 55 3 19 7 42 9 50 3 8 7 32 11 54 3 21 8 48
11 60 9 41 24 112 29 146 3 19 8 38 11 43 2 4 6 17 9 30 15 83 16 85 46 83 19
-1 23 -7 24 -41 6 -117 28 -377 40 -470 4 -27 8 -61 9 -75 1 -14 6 -47 10 -75
5 -27 9 -59 11 -70 1 -11 3 -20 4 -20 1 0 3 -11 4 -25 3 -35 15 -93 38 -185
11 -44 21 -87 23 -95 6 -29 63 -162 74 -173 6 -6 11 -15 11 -19 0 -5 14 -27
30 -50 33 -45 86 -86 122 -92 13 -3 25 -5 28 -6 9 -3 101 1 124 6 96 18 131
35 257 124 8 5 15 36 24 100 10 74 15 98 40 205 28 123 119 398 161 490 15 33
28 62 28 65 2 8 90 184 99 195 4 6 35 53 68 105 34 52 63 96 64 98 2 2 15 5
30 7 27 2 27 2 21 -44 -3 -25 -8 -57 -11 -71 -3 -14 -8 -41 -11 -60 -3 -19 -7
-42 -9 -50 -2 -8 -7 -33 -10 -55 -3 -23 -7 -50 -9 -62 -3 -12 -8 -43 -12 -70
-3 -26 -8 -57 -10 -68 -7 -33 -35 -227 -49 -325 -18 -140 -26 -358 -13 -400 4
-14 9 -38 12 -55 18 -116 78 -203 169 -248 60 -29 115 -39 207 -38 96 2 151
14 238 53 26 12 50 22 54 22 3 1 27 15 52 33 l45 32 -30 71 c-27 63 -37 103
-55 215 -12 75 -5 297 11 355 2 8 6 35 9 60 3 25 8 56 11 70 2 13 7 40 10 60
3 20 8 47 10 60 3 14 8 41 11 60 3 19 7 42 9 50 2 8 7 31 10 50 5 32 41 217
51 265 2 10 6 37 9 60 3 22 8 48 11 57 8 27 15 61 19 98 3 19 8 46 11 60 12
50 15 66 19 105 3 22 7 51 10 65 16 83 19 115 20 205 0 120 -13 169 -61 223
-50 58 -98 72 -237 68 -61 -2 -130 -8 -152 -14 -22 -6 -51 -13 -65 -16 -116
-21 -337 -134 -437 -224 -110 -98 -146 -137 -229 -247 -59 -79 -124 -176 -137
-205 -4 -8 -17 -31 -29 -50 -53 -86 -134 -262 -192 -417 -21 -56 -32 -73 -47
-73 -14 0 -19 7 -20 28 0 15 -2 34 -4 42 -1 8 -5 44 -9 80 -3 36 -8 79 -11 95
-2 17 -9 64 -15 105 -6 41 -13 88 -15 104 -3 15 -7 36 -10 46 -3 10 -7 31 -9
47 -2 17 -16 75 -31 129 -14 54 -28 106 -30 116 -2 9 -15 45 -30 80 -14 34
-27 68 -28 73 -5 21 -57 101 -93 144 -44 50 -140 116 -193 131 -68 20 -146 31
-229 33 -46 1 -85 1 -86 0z"/>
<path d="M6977 7522 c-6 -13 -1 -2351 5 -2357 3 -4 44 -6 89 -5 46 0 93 1 104
0 55 0 123 2 144 3 24 2 24 2 23 124 l0 123 42 -43 c86 -90 189 -157 296 -192
30 -10 57 -18 60 -18 3 0 21 -4 40 -9 51 -14 247 -18 300 -8 72 15 90 19 113
25 141 40 296 147 399 276 65 81 145 252 162 345 3 13 7 27 10 32 8 13 19 152
19 237 0 94 -11 198 -24 231 -4 13 -6 24 -4 24 3 0 -1 16 -9 35 -8 19 -13 35
-12 35 2 0 -7 26 -21 58 -13 31 -30 69 -36 85 -6 15 -15 27 -19 27 -4 0 -8 5
-8 12 0 6 -19 36 -42 67 -154 206 -386 321 -646 322 -109 0 -164 -8 -263 -41
-113 -38 -215 -100 -294 -178 l-63 -63 0 413 c-1 227 -1 420 -1 430 -1 14 -21
16 -181 17 -99 0 -181 -3 -183 -7z m995 -896 c46 -7 130 -40 184 -71 87 -51
192 -182 219 -275 1 -3 5 -12 8 -20 17 -39 29 -135 28 -222 0 -66 -17 -183
-29 -203 -4 -5 -7 -15 -8 -21 -3 -21 -37 -89 -68 -134 -70 -105 -183 -184
-307 -216 -71 -18 -230 -15 -268 5 -11 7 -21 9 -21 7 0 -3 -32 11 -71 31 -149
76 -252 221 -286 403 -8 44 -9 213 -1 261 18 114 86 246 165 320 121 114 287
163 455 135z"/>
<path d="M9712 6929 c-74 -16 -249 -82 -262 -99 -3 -3 -23 -17 -45 -30 -68
-40 -159 -129 -215 -211 -38 -55 -113 -199 -104 -199 3 0 -2 -13 -11 -30 -9
-16 -13 -30 -11 -30 3 0 2 -10 -3 -23 -9 -23 -19 -71 -27 -132 -6 -46 -5 -247
1 -275 3 -14 8 -42 10 -62 2 -21 18 -78 34 -126 69 -206 208 -374 395 -477 54
-29 204 -82 258 -90 63 -10 298 -14 303 -5 3 5 12 7 19 4 26 -10 206 45 299
92 51 25 94 49 97 53 3 4 19 17 35 30 115 88 206 206 267 346 89 205 98 482
21 705 -77 226 -234 400 -449 500 -166 76 -422 101 -612 59z m381 -324 c134
-46 229 -130 292 -259 44 -89 64 -184 64 -307 -1 -135 -34 -267 -85 -336 -13
-17 -24 -36 -24 -41 0 -6 -28 -36 -62 -67 -58 -54 -174 -120 -223 -128 -11 -1
-24 -5 -30 -8 -25 -15 -208 -7 -269 11 -108 34 -212 113 -268 205 -25 41 -57
116 -64 148 -2 10 -6 27 -9 37 -3 11 -8 50 -11 87 -3 37 -6 73 -6 78 -2 22 13
189 18 197 3 5 8 21 10 36 15 81 106 217 192 285 49 38 161 80 242 90 60 7
170 -6 233 -28z"/>
<path d="M10990 6920 c-4 -3 23 -52 61 -110 38 -58 72 -112 76 -120 4 -8 28
-46 53 -85 26 -38 77 -119 115 -180 38 -60 72 -111 77 -113 4 -2 8 -8 8 -13 0
-6 24 -47 53 -92 29 -45 67 -104 84 -131 l31 -49 -36 -56 c-21 -31 -40 -57
-44 -59 -5 -2 -8 -7 -8 -12 0 -4 -34 -58 -75 -119 -41 -62 -75 -113 -75 -114
0 -3 -207 -319 -217 -332 -5 -5 -24 -35 -43 -65 -19 -30 -37 -57 -41 -60 -3
-3 -11 -15 -18 -28 -12 -23 -12 -23 41 -21 29 1 63 -1 75 -5 12 -4 24 -3 27 2
3 5 25 6 48 3 24 -3 61 -4 83 -1 22 3 52 3 67 -1 23 -6 28 -3 38 22 7 16 16
29 21 29 5 0 9 5 9 12 0 7 11 28 24 47 13 20 83 136 156 259 72 122 135 222
138 222 4 0 24 -28 45 -63 20 -34 103 -165 185 -292 l147 -230 45 -5 c25 -3
63 -2 85 1 23 3 54 2 70 -2 15 -5 35 -5 43 0 8 4 30 5 51 2 20 -3 55 -4 79 -1
l42 5 -24 35 c-58 85 -226 353 -226 360 0 5 -4 10 -8 12 -4 2 -19 21 -32 43
-39 65 -139 219 -150 232 -5 7 -10 17 -10 22 0 5 -6 16 -13 23 -14 14 -95 142
-99 156 -3 9 29 60 224 356 65 99 118 183 118 188 0 4 4 8 9 8 5 0 11 8 15 18
6 18 27 53 37 62 3 3 34 50 69 105 36 55 70 106 77 113 7 8 11 17 9 20 -4 8
-373 9 -380 1 -2 -2 -19 -30 -37 -62 -19 -33 -43 -74 -54 -93 -18 -30 -163
-272 -190 -316 -5 -9 -23 -39 -39 -67 -16 -28 -32 -51 -35 -51 -3 1 -35 48
-71 106 -36 58 -82 131 -102 162 -21 31 -41 64 -45 72 -3 8 -9 17 -13 20 -3 3
-33 50 -67 105 -34 55 -69 107 -77 115 -13 11 -54 14 -207 15 -105 0 -194 -2
-199 -5z"/>
</g>
</svg>
